<svg data-v-fde0c5aa="" xmlns="http://www.w3.org/2000/svg" viewBox="0 0 300 300" class="iconLeftSlogan"><!----><defs data-v-fde0c5aa=""><!----></defs><rect data-v-fde0c5aa="" fill="transparent" x="0" y="0" width="300px" height="300px" class="logo-background-square"></rect><defs data-v-fde0c5aa=""><!----></defs><g data-v-fde0c5aa="" id="4bc543d0-2e4c-4256-acb4-78882ab3ea6e" fill="#000000" transform="matrix(2.1159521551011973,0,0,2.1159521551011973,85.05308223324795,121.06222811094783)"><path d="M0.98 14.08L3.47 14.08L3.47 10.28L7.53 10.28L7.53 14.08L10.02 14.08L10.02 4.28L7.53 4.28L7.53 8.32L3.47 8.32L3.47 4.28L0.98 4.28ZM11.98 14.08L16.79 14.08C19.10 14.08 20.55 13.03 20.55 11.37C20.55 10.09 19.77 9.13 18.54 8.89C19.57 8.60 20.22 7.77 20.22 6.73C20.22 5.24 18.82 4.28 16.62 4.28L11.98 4.28ZM14.46 12.17L14.46 10.00L16.48 10.00C17.40 10.00 17.98 10.40 17.98 11.06C17.98 11.76 17.40 12.17 16.48 12.17ZM14.46 8.20L14.46 6.19L16.48 6.19C17.21 6.19 17.67 6.55 17.67 7.18C17.67 7.81 17.21 8.20 16.48 8.20ZM21.99 14.08L24.49 14.08L24.49 10.47L28.88 10.47L28.88 8.51L24.49 8.51L24.49 6.24L29.26 6.24L29.26 4.28L21.99 4.28ZM29.71 12.60C30.87 13.55 32.55 14.17 34.19 14.17C36.37 14.17 38.11 13.13 38.11 11.17C38.11 7.63 32.93 8.60 32.93 6.90C32.93 6.43 33.36 6.19 34.01 6.19C34.80 6.19 36.11 6.61 37.14 7.21L38.08 5.26C37.07 4.61 35.63 4.17 34.22 4.17C31.86 4.17 30.31 5.32 30.31 7.13C30.31 10.60 35.49 9.56 35.49 11.30C35.49 11.86 35 12.15 34.22 12.15C33.19 12.15 31.68 11.56 30.67 10.68ZM42.07 9.16C42.07 12.03 44.27 14.20 47.22 14.20C48.66 14.20 50.22 13.48 51.27 12.40L49.81 10.86C49.13 11.56 48.17 12.01 47.35 12.01C45.79 12.01 44.62 10.77 44.62 9.13C44.62 7.52 45.79 6.29 47.35 6.29C48.22 6.29 49.17 6.78 49.81 7.56L51.25 5.85C50.27 4.84 48.76 4.20 47.31 4.20C44.32 4.20 42.07 6.33 42.07 9.16ZM52.46 14.08L54.88 14.08L54.88 3.70L52.46 3.70ZM56.25 10.30C56.25 12.63 57.90 14.17 60.38 14.17C62.85 14.17 64.50 12.63 64.50 10.30C64.50 7.98 62.85 6.45 60.38 6.45C57.90 6.45 56.25 7.98 56.25 10.30ZM58.69 10.33C58.69 9.17 59.37 8.37 60.38 8.37C61.38 8.37 62.06 9.17 62.06 10.33C62.06 11.51 61.38 12.29 60.38 12.29C59.37 12.29 58.69 11.51 58.69 10.33ZM65.58 11.30C65.58 13.06 66.64 14.18 68.28 14.18C69.37 14.18 70.21 13.73 70.73 12.84L70.73 14.08L73.15 14.08L73.15 6.54L70.73 6.54L70.73 10.26C70.73 11.28 70.18 12.04 69.26 12.05C68.49 12.05 68.00 11.51 68.00 10.61L68.00 6.54L65.58 6.54ZM74.47 10.28C74.47 12.61 75.87 14.18 77.99 14.18C78.96 14.18 79.73 13.79 80.26 13.09L80.26 14.08L82.68 14.08L82.68 3.70L80.26 3.70L80.26 7.53C79.73 6.83 78.93 6.44 77.94 6.44C75.85 6.44 74.47 7.97 74.47 10.28ZM76.89 10.33C76.90 9.17 77.57 8.37 78.58 8.37C79.59 8.37 80.26 9.17 80.26 10.33C80.26 11.49 79.59 12.31 78.58 12.31C77.57 12.31 76.90 11.49 76.89 10.33Z"></path></g><defs data-v-fde0c5aa=""><linearGradient data-v-fde0c5aa="" gradientTransform="rotate(25)" id="fb84a529-58c1-425a-95b1-2ce1ce08d5bb" x1="0%" y1="0%" x2="100%" y2="0%"><stop data-v-fde0c5aa="" offset="0%" stop-color="#3E6E81" stop-opacity="1"></stop><stop data-v-fde0c5aa="" offset="100%" stop-color="#4587A1" stop-opacity="1"></stop></linearGradient></defs><g data-v-fde0c5aa="" id="a93c607b-5509-4bdf-ab2d-31f404fa0605" stroke="none" fill="url(#fb84a529-58c1-425a-95b1-2ce1ce08d5bb)" transform="matrix(0.5593394799899701,0,0,0.5593394799899701,29.0961927261891,121.4411258272205)"><path d="M37.367 69.448c.27-.608.536-1.217.8-1.828a126.608 126.608 0 0 0 2.07-5.068c.501-1.318.977-2.648 1.372-4.001.142-.483.272-.969.383-1.46.082-.367.155-.736.202-1.109a8.47 8.47 0 0 0 .06-.827c.031-1.146-.128-2.295-.372-3.412-.338-1.549-.847-3.06-1.456-4.522a30.13 30.13 0 0 0-1.182-2.514 17.19 17.19 0 0 0-1.212-2.002c-.27.077-.539.164-.81.241-.405.113-.814.212-1.227.292a16.683 16.683 0 0 1-2.546.28c-.132.005-.297.014-.43.001a1.587 1.587 0 0 1-1.051-.532 1.61 1.61 0 0 1-.272-1.693 1.599 1.599 0 0 1 1.216-.948c.14-.022.27-.02.411-.026l.196-.009c.185-.01.185-.01.371-.023a13.047 13.047 0 0 0 1.856-.267c.525-.118 1.034-.287 1.551-.434a4.394 4.394 0 0 1 .827-.148c.13-.004.13-.004.26-.002.216.015.428.045.636.109a2.75 2.75 0 0 1 1.12.703c.338.34.611.743.872 1.143.426.653.81 1.335 1.17 2.027.436.839.834 1.698 1.198 2.571.683 1.64 1.25 3.334 1.628 5.071.3 1.37.483 2.776.445 4.18a11.82 11.82 0 0 1-.102 1.275 18.304 18.304 0 0 1-.49 2.293 44.48 44.48 0 0 1-1.086 3.4 98.13 98.13 0 0 1-1.779 4.57 201.233 201.233 0 0 1-2.507 5.761c-.13.29-.263.581-.395.871.431 1.009.86 2.019 1.292 3.027 1.234 2.864 2.493 5.719 3.913 8.497.093.181.186.363.281.544 2.4.444 4.813.819 7.23 1.168 4.357.631 8.73 1.158 13.095 1.729.586.078 1.172.157 1.757.238.898.128 1.798.255 2.69.426.261.051.522.105.78.173.271.071.541.156.785.296a2.081 2.081 0 0 1 1.04 1.488c.017.102.026.205.03.308.017.66-.246 1.29-.573 1.85a8.568 8.568 0 0 1-.49.746c-.158.216-.32.427-.488.635a22.18 22.18 0 0 1-.395.477h-4.357c.294-.301.585-.604.873-.911.596-.635 1.18-1.284 1.703-1.981l.017-.023a62.026 62.026 0 0 0-2.06-.315 277.413 277.413 0 0 0-3.022-.402c-1.997-.257-3.995-.509-5.99-.768a426.196 426.196 0 0 1-5.854-.799c-1.58-.228-3.159-.467-4.733-.729.38.613.775 1.215 1.192 1.803.864 1.217 1.824 2.366 2.811 3.484.19.215.38.428.572.641h-4.236a38.019 38.019 0 0 1-2.13-2.812 46.332 46.332 0 0 1-2.145-3.5l-.203-.366a75.764 75.764 0 0 1-3.394-.748 39.084 39.084 0 0 1-2.793-.787 22.498 22.498 0 0 1-.945-.332c-.25-.094-.498-.194-.743-.3a12.301 12.301 0 0 1-.999-.492c-.76-.43-1.5-1.004-1.865-1.822a2.486 2.486 0 0 1-.16-1.578c.05-.221.131-.435.215-.645.08-.2.164-.397.25-.594.24-.548.49-1.09.74-1.633.74-1.594 1.487-3.184 2.227-4.777.195-.42.39-.841.582-1.261l-.177-.414c-.202-.464-.404-.928-.609-1.391a65.809 65.809 0 0 0-.998-2.158 9.673 9.673 0 0 1-4.721 1.256 9.562 9.562 0 0 1-6.629-2.648 9.552 9.552 0 0 1-2.887-5.709 9.589 9.589 0 0 1 .061-2.86 9.595 9.595 0 0 1 3.09-5.542 9.546 9.546 0 0 1 5.005-2.315 9.982 9.982 0 0 1 1.21-.096l.24-.001a9.556 9.556 0 0 1 6.081 2.264 9.57 9.57 0 0 1 2.02 2.368c.492.818.86 1.71 1.09 2.638a9.57 9.57 0 0 1-.437 5.954 9.668 9.668 0 0 1-1.593 2.601 53.66 53.66 0 0 1 1.027 2.135zm-.082 7.876c-.532 1.141-1.066 2.281-1.596 3.423-.172.374-.344.747-.513 1.122-.095.212-.188.424-.28.637l-.068.16c.176.127.365.235.557.334.223.114.452.217.684.313.653.27 1.326.489 2.004.689.802.237 1.614.444 2.428.635l.086.02c-1.17-2.413-2.246-4.869-3.302-7.333zm-8.3-22.87a6.756 6.756 0 0 0-2.753.643 6.602 6.602 0 0 0-1.539 1.021 6.683 6.683 0 0 0-2.108 3.672 6.67 6.67 0 0 0 .516 4.135 6.599 6.599 0 0 0 3.386 3.243 6.584 6.584 0 0 0 2.51.525 6.679 6.679 0 0 0 2.695-.542 6.624 6.624 0 0 0 3.468-3.495 6.59 6.59 0 0 0 .37-4.021 6.64 6.64 0 0 0-.709-1.845 6.66 6.66 0 0 0-3.308-2.872 6.688 6.688 0 0 0-2.198-.461c-.11-.003-.22-.004-.33-.003zm43.702-34.495a8.022 8.022 0 0 1 2.827.591 8.041 8.041 0 0 1 4.95 6.613 8.004 8.004 0 0 1-.885 4.565 8.051 8.051 0 0 1-5.099 4.034 7.997 7.997 0 0 1-1.492.237 4.689 4.689 0 0 1-.66.01H40.326a7.016 7.016 0 0 1-.752-.05c-.128-.018-.255-.041-.382-.063-.073-.014-.148-.023-.22-.035a8.182 8.182 0 0 1-2.54-.891 8.055 8.055 0 0 1-2.35-1.969 7.966 7.966 0 0 1-1.393-2.566 8.018 8.018 0 0 1 1.27-7.334 8.03 8.03 0 0 1 5.253-3.068 7.907 7.907 0 0 1 2.22.001c.398.058.788.149 1.173.264.064-.135.064-.135.131-.268a8.116 8.116 0 0 1 1.625-2.162 8.044 8.044 0 0 1 1.346-1.028 8.032 8.032 0 0 1 4.462-1.158c.53.02 1.055.096 1.571.218.013-.1.03-.201.045-.301a10.162 10.162 0 0 1 1.739-4.215 10.154 10.154 0 0 1 8.552-4.277 10.142 10.142 0 0 1 6.208 2.318 10.145 10.145 0 0 1 3.697 7.586c.006.244.004.489-.017.733-.058.708-.233 1.398-.449 2.073l-.046.14-.024.068a8.194 8.194 0 0 1 1.041-.068c.101 0 .1 0 .201.002zm.007 12.872l-.047-.007h-.002l.05.007zm-.218-.022l.08.006a5.162 5.162 0 0 0 .907-.101 4.78 4.78 0 0 0 1.376-.517 4.857 4.857 0 0 0 2.321-3.035 4.87 4.87 0 0 0-.234-3.058 4.87 4.87 0 0 0-2.514-2.546 4.801 4.801 0 0 0-2.86-.308 4.793 4.793 0 0 0-1.49.582 5.648 5.648 0 0 0-.594.412l-.127.09c-.14.08-.14.08-.286.145l-.008.003c-.103.036-.102.036-.208.065l-.007.002c-.153.029-.152.029-.308.043h-.006c-.048-.001-.096.001-.145-.001-.129-.007-.16-.017-.287-.041l-.004-.001c-.116-.032-.146-.037-.256-.084-.11-.047-.135-.065-.239-.125l-.004-.003c-.099-.07-.127-.084-.217-.167-.09-.082-.107-.108-.186-.201l-.002-.004c-.076-.108-.099-.133-.16-.25-.022-.044-.04-.091-.06-.136l-.003-.005c-.052-.152-.052-.152-.089-.309v-.006c-.017-.113-.017-.112-.025-.225v-.008a1.902 1.902 0 0 1 .054-.498c.078-.293.215-.568.346-.84.136-.284.274-.567.41-.852l.182-.396c.281-.63.547-1.269.737-1.933.112-.39.208-.796.214-1.202a6.97 6.97 0 0 0-6.88-7.001h-.18a7.065 7.065 0 0 0-2.385.451 7.028 7.028 0 0 0-3.61 3.122 6.934 6.934 0 0 0-.867 2.946 4.396 4.396 0 0 0-.005.639c.016.17.041.34.064.509l.018.134.012.164c0 .055.001.11-.004.165-.012.164-.05.326-.112.479a1.611 1.611 0 0 1-1.56.997 1.602 1.602 0 0 1-.634-.165c-.129-.064-.249-.148-.374-.221a4.988 4.988 0 0 0-1.606-.581 4.809 4.809 0 0 0-4.876 2.196 4.89 4.89 0 0 0-.65 1.641l-.042.163c-.019.052-.036.106-.059.158a1.613 1.613 0 0 1-2.12.822c-.128-.057-.247-.134-.369-.2a4.983 4.983 0 0 0-.952-.388 4.617 4.617 0 0 0-1.264-.179 4.785 4.785 0 0 0-1.822.356 4.844 4.844 0 0 0-2.527 2.377 4.846 4.846 0 0 0-.402 2.93c.074.425.208.84.395 1.229a4.836 4.836 0 0 0 3.593 2.668c.054.009.108.014.162.024.088.015.175.035.264.046.118.016.236.021.355.023h32.13zM67.62 21.628l-.007.005a.04.04 0 0 0 .007-.005z"></path></g><defs data-v-fde0c5aa=""><!----></defs><g data-v-fde0c5aa="" id="2285959b-46e3-49cb-b39d-056dd167f66d" fill="#000000" transform="matrix(0.45696197755815104,0,0,0.45696197755815104,86.61034835314396,160.34105266147807)"><path d="M7.57 2.21L7.57 6.33L2.18 6.33L2.18 2.21L1.13 2.21L1.13 11.48L2.18 11.48L2.18 7.35L7.57 7.35L7.57 11.48L8.62 11.48L8.62 2.21ZM17.60 11.48L18.65 11.48L18.65 4.48L17.60 4.48ZM17.56 1.93L17.56 3.30L18.69 3.30L18.69 1.93ZM32.93 4.48L32.93 5.60C32.41 4.84 31.58 4.37 30.42 4.37C28.38 4.37 27.03 5.92 27.03 7.92C27.03 9.93 28.38 11.48 30.42 11.48C31.58 11.48 32.41 10.99 32.93 10.23L32.93 11.20C32.93 12.64 32.23 13.41 30.62 13.41C29.55 13.41 28.85 13.01 28.57 12.32L27.41 12.32C27.80 13.54 28.91 14.36 30.67 14.36C32.77 14.36 33.98 13.27 33.98 11.27L33.98 4.48ZM30.56 10.53C29.01 10.53 28.08 9.37 28.08 7.92C28.08 6.48 29.01 5.32 30.56 5.32C32.09 5.32 32.98 6.48 32.98 7.92C32.98 9.37 32.09 10.53 30.56 10.53ZM42.80 1.68L42.80 11.48L43.85 11.48L43.85 7.45C43.85 6.19 44.80 5.32 45.96 5.32C47.11 5.32 47.92 6.16 47.92 7.43L47.92 11.48L48.97 11.48L48.97 7.41C48.97 5.42 47.61 4.37 46.17 4.37C45.04 4.37 44.35 4.90 43.85 5.57L43.85 1.68ZM60.84 10.64C59.43 10.64 58.52 9.65 58.37 8.40L64.23 8.40L64.23 7.98C64.23 5.98 62.90 4.37 60.76 4.37C58.62 4.37 57.29 5.98 57.29 7.98C57.29 9.98 58.69 11.59 60.83 11.59C62.50 11.59 63.53 10.72 64.02 9.46L62.87 9.46C62.50 10.16 61.82 10.64 60.84 10.64ZM60.76 5.32C62.10 5.32 62.94 6.23 63.14 7.42L58.38 7.42C58.58 6.23 59.42 5.32 60.76 5.32ZM76.15 4.37C74.41 4.37 73.71 5.73 73.57 6.20L73.57 4.48L72.52 4.48L72.52 11.48L73.57 11.48L73.57 8.40C73.57 6.86 74.52 5.42 76.09 5.42L76.22 5.42L76.22 4.37ZM100.39 6.75C101.05 6.45 101.64 5.85 101.64 4.66C101.64 3.54 100.90 2.21 98.71 2.21L94.56 2.21L94.56 11.48L98.95 11.48C101.07 11.48 102.12 10.43 102.12 9.04C102.12 7.66 101.18 7 100.39 6.75ZM95.61 3.21L98.83 3.21C100.10 3.21 100.59 3.98 100.59 4.75C100.59 5.88 99.68 6.36 98.71 6.36L95.61 6.36ZM99.06 10.49L95.61 10.49L95.61 7.31L98.95 7.31C100.42 7.31 101.07 8.09 101.07 8.96C101.07 9.93 100.34 10.49 99.06 10.49ZM113.72 10.64C112.31 10.64 111.40 9.65 111.24 8.40L117.11 8.40L117.11 7.98C117.11 5.98 115.78 4.37 113.64 4.37C111.50 4.37 110.17 5.98 110.17 7.98C110.17 9.98 111.57 11.59 113.71 11.59C115.37 11.59 116.41 10.72 116.90 9.46L115.75 9.46C115.37 10.16 114.70 10.64 113.72 10.64ZM113.64 5.32C114.98 5.32 115.82 6.23 116.02 7.42L111.26 7.42C111.45 6.23 112.29 5.32 113.64 5.32ZM127.12 11.48L127.12 5.40L128.73 5.40L128.73 4.48L127.12 4.48L127.12 1.97L126.07 1.97L126.07 4.48L124.64 4.48L124.64 5.40L126.07 5.40L126.07 11.48ZM138.68 11.48L138.68 5.40L140.29 5.40L140.29 4.48L138.68 4.48L138.68 1.97L137.63 1.97L137.63 4.48L136.21 4.48L136.21 5.40L137.63 5.40L137.63 11.48ZM151.42 10.64C150.01 10.64 149.10 9.65 148.95 8.40L154.81 8.40L154.81 7.98C154.81 5.98 153.48 4.37 151.34 4.37C149.20 4.37 147.87 5.98 147.87 7.98C147.87 9.98 149.27 11.59 151.41 11.59C153.08 11.59 154.11 10.72 154.60 9.46L153.45 9.46C153.08 10.16 152.40 10.64 151.42 10.64ZM151.34 5.32C152.68 5.32 153.52 6.23 153.72 7.42L148.96 7.42C149.16 6.23 150.00 5.32 151.34 5.32ZM166.73 4.37C164.99 4.37 164.29 5.73 164.15 6.20L164.15 4.48L163.10 4.48L163.10 11.48L164.15 11.48L164.15 8.40C164.15 6.86 165.10 5.42 166.67 5.42L166.80 5.42L166.80 4.37ZM191.83 3.22L191.83 2.21L185.14 2.21L185.14 11.48L186.19 11.48L186.19 7.46L191.21 7.46L191.21 6.44L186.19 6.44L186.19 3.22ZM202.82 4.37C200.77 4.37 199.43 5.98 199.43 7.98C199.43 9.98 200.77 11.59 202.82 11.59C203.98 11.59 204.81 11.12 205.32 10.36L205.32 11.48L206.37 11.48L206.37 4.48L205.32 4.48L205.32 5.61C204.81 4.86 203.98 4.37 202.82 4.37ZM202.96 10.64C201.40 10.64 200.48 9.42 200.48 7.98C200.48 6.54 201.40 5.32 202.96 5.32C204.51 5.32 205.38 6.54 205.38 7.98C205.38 9.42 204.51 10.64 202.96 10.64ZM217.63 4.37C215.82 4.37 214.89 5.11 214.89 6.37C214.89 8.93 219.55 7.84 219.55 9.59C219.55 10.54 218.33 10.70 217.76 10.70C216.40 10.70 215.87 10.00 215.80 9.28L214.70 9.28C214.77 10.51 215.80 11.59 217.74 11.59C219.48 11.59 220.60 10.85 220.60 9.49C220.60 6.86 215.94 7.95 215.94 6.27C215.94 5.59 216.51 5.26 217.60 5.26C218.78 5.26 219.23 5.75 219.31 6.36L220.37 6.36C220.25 5.33 219.48 4.37 217.63 4.37ZM230.75 11.48L230.75 5.40L232.36 5.40L232.36 4.48L230.75 4.48L230.75 1.97L229.70 1.97L229.70 4.48L228.27 4.48L228.27 5.40L229.70 5.40L229.70 11.48ZM243.49 10.64C242.07 10.64 241.16 9.65 241.01 8.40L246.88 8.40L246.88 7.98C246.88 5.98 245.55 4.37 243.40 4.37C241.26 4.37 239.93 5.98 239.93 7.98C239.93 9.98 241.33 11.59 243.47 11.59C245.14 11.59 246.18 10.72 246.67 9.46L245.52 9.46C245.14 10.16 244.47 10.64 243.49 10.64ZM243.40 5.32C244.75 5.32 245.59 6.23 245.78 7.42L241.02 7.42C241.22 6.23 242.06 5.32 243.40 5.32ZM258.79 4.37C257.05 4.37 256.35 5.73 256.21 6.20L256.21 4.48L255.16 4.48L255.16 11.48L256.21 11.48L256.21 8.40C256.21 6.86 257.17 5.42 258.73 5.42L258.86 5.42L258.86 4.37ZM277.82 4.65C277.82 4.03 278.18 3.08 280.28 3.08C281.97 3.08 282.76 3.82 282.87 4.75L283.95 4.75C283.86 3.36 282.74 2.10 280.28 2.10C277.96 2.10 276.79 3.15 276.79 4.66C276.79 7.84 283.14 6.69 283.14 8.96C283.14 10.05 282.16 10.60 280.59 10.60C278.98 10.60 277.68 10.05 277.61 8.71L276.51 8.71C276.65 10.37 277.77 11.59 280.52 11.59C282.80 11.59 284.19 10.64 284.19 8.92C284.19 5.68 277.82 6.80 277.82 4.65ZM294.39 11.48L294.39 5.40L296.00 5.40L296.00 4.48L294.39 4.48L294.39 1.97L293.34 1.97L293.34 4.48L291.91 4.48L291.91 5.40L293.34 5.40L293.34 11.48ZM307.78 4.37C306.04 4.37 305.34 5.73 305.20 6.20L305.20 4.48L304.15 4.48L304.15 11.48L305.20 11.48L305.20 8.40C305.20 6.86 306.15 5.42 307.72 5.42L307.85 5.42L307.85 4.37ZM318.84 4.37C316.69 4.37 315.36 5.98 315.36 7.98C315.36 9.98 316.69 11.59 318.84 11.59C320.98 11.59 322.31 9.98 322.31 7.98C322.31 5.98 320.98 4.37 318.84 4.37ZM318.84 10.64C317.28 10.64 316.41 9.42 316.41 7.98C316.41 6.54 317.28 5.32 318.84 5.32C320.39 5.32 321.26 6.54 321.26 7.98C321.26 9.42 320.39 10.64 318.84 10.64ZM330.69 4.48L330.69 11.48L331.74 11.48L331.74 7.45C331.74 6.19 332.70 5.32 333.86 5.32C335.01 5.32 335.82 6.16 335.82 7.43L335.82 11.48L336.87 11.48L336.87 7.41C336.87 5.42 335.51 4.37 334.07 4.37C332.93 4.37 332.25 4.90 331.74 5.57L331.74 4.48ZM351.08 4.48L351.08 5.60C350.56 4.84 349.73 4.37 348.57 4.37C346.53 4.37 345.18 5.92 345.18 7.92C345.18 9.93 346.53 11.48 348.57 11.48C349.73 11.48 350.56 10.99 351.08 10.23L351.08 11.20C351.08 12.64 350.38 13.41 348.77 13.41C347.70 13.41 347.00 13.01 346.72 12.32L345.56 12.32C345.95 13.54 347.06 14.36 348.82 14.36C350.92 14.36 352.13 13.27 352.13 11.27L352.13 4.48ZM348.71 10.53C347.16 10.53 346.23 9.37 346.23 7.92C346.23 6.48 347.16 5.32 348.71 5.32C350.24 5.32 351.13 6.48 351.13 7.92C351.13 9.37 350.24 10.53 348.71 10.53ZM364.07 10.64C362.66 10.64 361.75 9.65 361.59 8.40L367.46 8.40L367.46 7.98C367.46 5.98 366.13 4.37 363.99 4.37C361.84 4.37 360.51 5.98 360.51 7.98C360.51 9.98 361.91 11.59 364.06 11.59C365.72 11.59 366.76 10.72 367.25 9.46L366.10 9.46C365.72 10.16 365.05 10.64 364.07 10.64ZM363.99 5.32C365.33 5.32 366.17 6.23 366.37 7.42L361.61 7.42C361.80 6.23 362.64 5.32 363.99 5.32ZM379.37 4.37C377.64 4.37 376.94 5.73 376.80 6.20L376.80 4.48L375.75 4.48L375.75 11.48L376.80 11.48L376.80 8.40C376.80 6.86 377.75 5.42 379.32 5.42L379.44 5.42L379.44 4.37Z"></path></g></svg>