<svg data-v-423bf9ae="" xmlns="http://www.w3.org/2000/svg" viewBox="0 0 466.8571254185268 60" class="font"><!----><!----><!----><g data-v-423bf9ae="" id="7b7460f0-89ba-4cee-a99c-1171dc59d658" fill="white" transform="matrix(5.714285714285714,0,0,5.714285714285714,-5.599992547716425,-21.142858130591257)"><path d="M0.98 14.08L3.47 14.08L3.47 10.28L7.53 10.28L7.53 14.08L10.02 14.08L10.02 4.28L7.53 4.28L7.53 8.32L3.47 8.32L3.47 4.28L0.98 4.28ZM11.98 14.08L16.79 14.08C19.10 14.08 20.55 13.03 20.55 11.37C20.55 10.09 19.77 9.13 18.54 8.89C19.57 8.60 20.22 7.77 20.22 6.73C20.22 5.24 18.82 4.28 16.62 4.28L11.98 4.28ZM14.46 12.17L14.46 10.00L16.48 10.00C17.40 10.00 17.98 10.40 17.98 11.06C17.98 11.76 17.40 12.17 16.48 12.17ZM14.46 8.20L14.46 6.19L16.48 6.19C17.21 6.19 17.67 6.55 17.67 7.18C17.67 7.81 17.21 8.20 16.48 8.20ZM21.99 14.08L24.49 14.08L24.49 10.47L28.88 10.47L28.88 8.51L24.49 8.51L24.49 6.24L29.26 6.24L29.26 4.28L21.99 4.28ZM29.71 12.60C30.87 13.55 32.55 14.17 34.19 14.17C36.37 14.17 38.11 13.13 38.11 11.17C38.11 7.63 32.93 8.60 32.93 6.90C32.93 6.43 33.36 6.19 34.01 6.19C34.80 6.19 36.11 6.61 37.14 7.21L38.08 5.26C37.07 4.61 35.63 4.17 34.22 4.17C31.86 4.17 30.31 5.32 30.31 7.13C30.31 10.60 35.49 9.56 35.49 11.30C35.49 11.86 35 12.15 34.22 12.15C33.19 12.15 31.68 11.56 30.67 10.68ZM42.07 9.16C42.07 12.03 44.27 14.20 47.22 14.20C48.66 14.20 50.22 13.48 51.27 12.40L49.81 10.86C49.13 11.56 48.17 12.01 47.35 12.01C45.79 12.01 44.62 10.77 44.62 9.13C44.62 7.52 45.79 6.29 47.35 6.29C48.22 6.29 49.17 6.78 49.81 7.56L51.25 5.85C50.27 4.84 48.76 4.20 47.31 4.20C44.32 4.20 42.07 6.33 42.07 9.16ZM52.46 14.08L54.88 14.08L54.88 3.70L52.46 3.70ZM56.25 10.30C56.25 12.63 57.90 14.17 60.38 14.17C62.85 14.17 64.50 12.63 64.50 10.30C64.50 7.98 62.85 6.45 60.38 6.45C57.90 6.45 56.25 7.98 56.25 10.30ZM58.69 10.33C58.69 9.17 59.37 8.37 60.38 8.37C61.38 8.37 62.06 9.17 62.06 10.33C62.06 11.51 61.38 12.29 60.38 12.29C59.37 12.29 58.69 11.51 58.69 10.33ZM65.58 11.30C65.58 13.06 66.64 14.18 68.28 14.18C69.37 14.18 70.21 13.73 70.73 12.84L70.73 14.08L73.15 14.08L73.15 6.54L70.73 6.54L70.73 10.26C70.73 11.28 70.18 12.04 69.26 12.05C68.49 12.05 68.00 11.51 68.00 10.61L68.00 6.54L65.58 6.54ZM74.47 10.28C74.47 12.61 75.87 14.18 77.99 14.18C78.96 14.18 79.73 13.79 80.26 13.09L80.26 14.08L82.68 14.08L82.68 3.70L80.26 3.70L80.26 7.53C79.73 6.83 78.93 6.44 77.94 6.44C75.85 6.44 74.47 7.97 74.47 10.28ZM76.89 10.33C76.90 9.17 77.57 8.37 78.58 8.37C79.59 8.37 80.26 9.17 80.26 10.33C80.26 11.49 79.59 12.31 78.58 12.31C77.57 12.31 76.90 11.49 76.89 10.33Z"></path></g><!----><!----></svg>